<?xml version="1.0" encoding="utf-8"?>
<!-- Generator: Adobe Illustrator 25.4.1, SVG Export Plug-In . SVG Version: 6.00 Build 0)  -->
<svg version="1.1" id="Layer_2_1_" xmlns="http://www.w3.org/2000/svg" xmlns:xlink="http://www.w3.org/1999/xlink" x="0px" y="0px"
	 viewBox="0 0 500 500" style="enable-background:new 0 0 500 500;" xml:space="preserve">
<style type="text/css">
	.st0{fill:#C43F4F;}
	.st1{fill:#B28B67;}
	.st2{fill:#191847;}
	.st3{fill:#C5CFD6;}
	.st4{fill:#4289FE;}
	.st5{fill:#85B3FF;}
	.st6{fill:#E4E4E4;}
	.st7{fill:url(#Coat_Back_00000125587496164669688340000001756170933926571942_);}
	.st8{fill:#DDE3E9;}
	.st9{fill:url(#Coat_Front_00000002347800552442298600000000574996748602421409_);}
	.st10{opacity:0.1;enable-background:new    ;}
	.st11{fill:#3D3D3D;}
	.st12{fill:#915B3C;}
	.st13{fill:url(#Coat_Back_00000066473303453407393030000014689673293599881364_);}
	.st14{fill:url(#Coat_Front_00000049943545895244810690000014177728858460245893_);}
	.st15{fill:#BDF9E8;}
	.st16{fill:#C3DBD3;}
	.st17{fill:#455A64;}
	.st18{fill:#263238;}
	.st19{fill:#191919;}
	.st20{fill:#E8505B;}
	.st21{opacity:0.2;}
</style>
<path class="st0" d="M378.4,176c0,0,0.4-0.3,1-0.4l0.2,0.6l-0.7,0.3L378.4,176z"/>
<g>
	<g id="Head_Front_3_" transform="translate(82)">
		<g id="Head_3_" transform="translate(54 31)">
			<path id="Head-2_3_" class="st1" d="M236.6,208.5l3-21.1c-4.8,2.9-9.5,4.3-11.6,3.7c-5.6-1.4-5.9-21.5-1.8-29.5
				c4.3-8,26.2-11.4,27.2,4.3c0.4,5.4-1.9,10.4-5.3,14.3l6.1,28.3H236.6L236.6,208.5z"/>
		</g>
		<path id="hair" class="st2" d="M273.4,186.2c0.5,0.8,1,1.3,1.6,1.9c-0.5,0.3-0.9,0.6-1.3,1c-0.3,0.4-0.4,0.9-0.3,1.4
			c0.1,0.6,0.3,1.3,0.5,1.9c0.3,0.5,0.6,1,1,1.4c-0.4,0.1-0.8,0.4-1,0.8c-0.1,0.3-0.1,0.4-0.3,0.6c0,0.3-0.1,0.5-0.3,0.8
			c-0.1,0.5,0,0.9,0.1,1.3c0.4,0.5,0.9,1,1.5,1.3s2.5,0.1,2.8-0.3c0.5-0.8,0.9-1.5,1.1-2.4c0.4-1,1-2,1.6-2.9c0.6-1,1.5-1.8,2.4-2.4
			c0.3-0.1,0.5-0.5,0.8-0.4c0.1,0.1,0.3,0.4,0.4,0.5s0.3,0.4,0.4,0.5c0.8,0.6,1.5,1.1,2.4,1.4c0.9,0.3,1.8,0.6,2.7,1
			c0.8,0.5,1.3,1.1,1.5,2c0.3,0.8,0.5,1.6,0.6,2.5c0.3,1.1,0.8,2.2,1.3,3.2c0.3,0.5,0.5,0.9,0.9,1.3c0.3,0.3,0.8,0.6,1,0.4
			c0.1-0.1,0.1-0.3,0.1-0.5c0.1-0.3,1.4-2.9,2.7-3.2c1.1-0.3,4-0.3,4.9,0.3c2,1.1,2.3,3.5,1.6,5.7c-0.3,1-0.8,1.9-1.4,2.7
			c-0.3,0.4-0.6,0.6-1.1,0.8c-0.5,0.1-0.9,0.3-1.4,0.1c0,0.3,0.1,0.5,0.1,0.8s0,0.5,0,0.9c0,0.5,0.1,1,0.4,1.5
			c0.1,0.3,0.3,0.5,0.3,0.8s0,0.4,0,0.6c0,0.4,0.1,0.8,0.4,1.1c0.8,1.5,3.2,1.9,4.2,0.5c0.8,1.6,2.3,2.8,4,3.3
			c1.4,0.4,3.4,0.4,4.4-0.9c0.4,0.4,0.8,0.6,1.3,0.9c1.8,1,3.9,0.9,5.7-0.1c0.9-0.6,1.5-1.4,1.8-2.4c0.3-1.1,0.3-2.3,0.1-3.3
			c0-0.1-0.1-0.4,0-0.5c0-0.1,0.1-0.1,0.3-0.1c0.3-0.1,0.4-0.3,0.6-0.4c0.4-0.3,0.6-0.6,0.9-1.1c0.5-1,0.6-2.2,0.4-3.2
			c-0.1-0.5-0.3-1.1-0.4-1.6c-0.1-0.3-0.1-0.5-0.3-0.8c-0.1-0.3-0.3-0.5-0.4-0.8c0-0.1,0-0.1,0.1-0.3l0.1-0.1
			c0.1-0.1,0.1-0.1,0.3-0.3c0.1-0.1,0.3-0.4,0.4-0.5c0.3-0.4,0.4-0.8,0.4-1.3c0.1-0.9,0.1-1.9-0.1-2.8c-0.1-0.5-0.3-1.1-0.5-1.6
			c-0.1-0.1-0.1-0.3-0.3-0.5c0-0.1,0-0.1,0-0.3c0.1-0.3,0.3-0.5,0.4-0.8c0.6-1.5,0.6-3.3,0.1-4.8s-1.5-2.8-2.9-3.5
			c-0.4-0.1-0.8-0.4-1.1-0.4c-0.3,0-0.4-0.1-0.6-0.1H320c0-0.1,0-0.3,0-0.3c-0.1-0.9-0.5-1.6-1.1-2.4c-0.6-0.6-1.4-1.1-2.2-1.4
			c-0.1,0-0.3,0-0.3-0.3c0-0.1-0.1-0.3-0.1-0.4c-0.1-0.3-0.3-0.5-0.4-0.6c-0.3-0.5-0.6-0.9-1-1.3c-0.8-0.9-1.6-1.5-2.7-1.9
			c-0.5-0.1-1.1-0.3-1.6,0c-0.4,0.1-0.8,0.3-1.1,0.5c0-0.1-0.3-0.3-0.3-0.3c-0.1-0.1-0.3-0.4-0.4-0.5c-0.3-0.4-0.6-0.6-1-0.9
			c-0.9-0.5-1.8-0.9-2.8-1.1c-1-0.1-1.9-0.1-2.8,0.3c-0.1,0-0.5,0.3-0.6,0.3s-0.5-0.3-0.6-0.4c-0.5-0.3-0.9-0.4-1.4-0.4
			c-0.8-0.1-1.6,0.1-2.4,0.5c-0.1,0.1-0.1,0-0.3-0.1s-0.1-0.1-0.3-0.3c-0.1-0.1-0.3-0.3-0.4-0.4c-0.3-0.3-0.6-0.5-0.9-0.8
			c-1.5-1-3.2-1.1-4.9-1.1c-1.5,0-3,0.4-4.3,1.3c-0.1,0.1-0.4,0.4-0.5,0.4s-0.5-0.3-0.6-0.3c-0.4-0.1-0.8-0.4-1.1-0.5
			c-0.8-0.3-1.5-0.4-2.4-0.4c-1.5,0.1-2.9,0.8-3.9,1.9c-0.5,0.5-1,1.3-1.3,1.9c-0.1,0.3-0.1,0.4-0.3,0.6c0,0.1,0,0.3,0,0.3
			c0,0.1-0.1,0-0.3,0c-0.4,0-0.6,0-1,0.1c-1.3,0.4-2.3,1.4-2.7,2.7C272,183.2,272.4,185,273.4,186.2z"/>
	</g>
	<g id="Seat_1_" transform="translate(10 42)">
		<path id="Seat-2_1_" class="st3" d="M333.3,368.7v-67.5c0-6.5,5.3-11.8,11.8-11.8h84.5c6.5,0,11.8,5.3,11.8,11.8v67.5
			c0,6.5-5.3,11.8-11.8,11.8h-84.5C338.5,380.5,333.3,375.2,333.3,368.7z M356.8,309.9c-1.6,0-2.9,1.3-2.9,2.9V357
			c0,1.6,1.3,2.9,2.9,2.9h61c1.6,0,2.9-1.3,2.9-2.9v-44.1c0-1.6-1.3-2.9-2.9-2.9h-61V309.9z"/>
	</g>
	<path id="Skin_3_" class="st1" d="M290.7,420l-9-2.7c7.8-47.9,14.3-79.7,18.1-89.3c2.4-6.3,21.1-5.7,19,7.2
		c-0.9,5.4-4.4,19.9-9.1,36.2C307,381,300.2,399.2,290.7,420z M318,417.3c0-0.3-0.1-0.4-0.1-0.6c-0.3-3.8-5.4-48.3-7.8-79.9
		c-1-12.6,23.5-11.3,23.9,2.2c0.1,4.4,0.3,9.2,0.4,14.2c0.3,17.2-4.2,53.9-5.8,64.5C327.5,423.9,319.1,422.2,318,417.3z"/>
	<path id="Leg_Back" class="st4" d="M300.3,402.4l-17.2-2.5c1.8-4.6,7.1-64.6,16.1-77c0,0,0,0,0.1-0.1v-0.1
		c1.5-4.8,69.3-22.1,69.3-22.1h5.6v5.2l-46.7,23.8c0,0.8,0,1.6-0.1,2.4C327.9,361,306.9,378,300.3,402.4z"/>
	<path id="Leg_Front_2_" class="st5" d="M306.5,352c-1.1-3.2-1.5-6.5-1.3-9.7c0.6-10.4,7.3-19.4,16.8-23.4
		c17.1-7.5,38.5-16.8,44-18.5h40.1c3.8,25.4-2.7,37.1-24.4,40.9c-3.4,0.6-39.5,7-43.8,7.7l-7,57.7l-15.1,1.3"/>
	<g id="Right_Shoe_3_" transform="matrix(0.438, 0.899, -0.899, 0.438, 148.565, 57.151)">
		<path id="shoe_3_" class="st6" d="M401.9,0.2c-0.9,1.8-3.7,4-3.7,4l-3.3-0.3l0,0c-0.4,0-0.8,0.3-0.8,0.8l-0.8,21.1
			c0,0-0.8,2.3-1.9,5.6s4.3,4.2,4.3,4.2l18.5-37.2c-1.5-1.1-3.2-2.2-4.9-3.2l-5.1-0.9c0,0,0,0-0.1,0c-0.8-0.1-1.5,0.5-1.6,1.3
			L401.9,0.2z"/>
	</g>
	<g id="Right_Shoe-2_1_" transform="translate(263 132)">
		<path id="shoe-2_3_" class="st6" d="M25.5,284.7c-2,0-5.2-1.5-5.2-1.5l-1.3-3l0,0c-0.1-0.4-0.6-0.5-1-0.4l-19.2,8.6
			c0,0-2.3,0.4-5.8,0.8s-1.9,5.8-1.9,5.8h41.5c0.4-1.9,0.5-3.8,0.6-5.8l-1.4-4.9c0,0,0,0,0-0.1c-0.3-0.8-1.1-1.1-1.9-0.9L25.5,284.7
			z"/>
	</g>
	<g id="Body_Long_Sleeve_1_3_" transform="translate(22 82)">
		<path id="Skin-2" class="st1" d="M421,274.5c-4.2,0-7.6-3-11.8-5.1c-3.3-1.5-4.7,0-6.1,1.4c-1.3,1.4-2.4,2.8-4.8,1.6
			c1.5-3.4,5.2-9.9,3.4-14c-1.1-2.8-15.3-48.7-15.3-48.7h15.3c0,0,7.3,42.6,9.5,46.9c1,2.2,8.9,8.6,14.3,12.4
			c2.2,1.5,1.3,3.4,0.5,3.9C424.5,273.8,422.7,274.5,421,274.5z M294.7,231.6c-4.8,7.6-7.8,11.3-9.1,11.3c-0.1,0-0.4-0.1-0.4-0.3
			c-1.4-1.8,0.9-3.8,0.1-5.1c-0.8-1.4-5.1-0.5-9.2,0.4c-4,0.9-3.2-1.1-2.3-2.2c4.6-3.5,9.6-6.5,14.9-8.6l20.9-20.4l7,12L294.7,231.6
			L294.7,231.6z"/>
		
			<linearGradient id="Coat_Back_00000110456448180515544910000011023770149110514070_" gradientUnits="userSpaceOnUse" x1="250.5771" y1="771.85" x2="314.2193" y2="771.85" gradientTransform="matrix(1 0 0 1 44 -578)">
			<stop  offset="0" style="stop-color:#FF3E7D"/>
			<stop  offset="0.57" style="stop-color:#FD8678"/>
			<stop  offset="1" style="stop-color:#FFC562"/>
		</linearGradient>
		<path id="Coat_Back_2_" style="fill:url(#Coat_Back_00000110456448180515544910000011023770149110514070_);" d="M315.2,243.6
			l-20.6-25c27.2-22.4,46.3-47.2,57.3-74.5l6.3,1.1C359.2,179.1,342.4,211.9,315.2,243.6z"/>
		<path id="Shirt_2_" class="st8" d="M366.1,141.4l-17.1,2.5c0,33.4-19.6,81.2-19.6,81.2h56.5C383.3,189.5,379.5,162.9,366.1,141.4z
			"/>
		
			<linearGradient id="Coat_Front_00000037685446649174008600000016431128276246361784_" gradientUnits="userSpaceOnUse" x1="303.4263" y1="773.35" x2="367.5569" y2="773.35" gradientTransform="matrix(1 0 0 1 44 -578)">
			<stop  offset="0" style="stop-color:#FF3E7D"/>
			<stop  offset="0.57" style="stop-color:#FD8678"/>
			<stop  offset="1" style="stop-color:#FFC562"/>
		</linearGradient>
		<path id="Coat_Front_2_" style="fill:url(#Coat_Front_00000037685446649174008600000016431128276246361784_);" d="M384,249.4
			c0.3-3,0.4-6.1,0.4-9.1h-37.1c0,0,7-65.3,7.6-86.9l4.2-11.8c0,0,4-0.1,6.1-0.3h1.1l0,0l0,0c0,0,39,38.2,45.2,108L384,249.4z"/>
		<path id="Shade_2_" class="st10" d="M379.2,224.3c1.1-6.7,2-13.5,2.5-20.4c2.2,12,3,24.2,2.8,36.4h-10.4
			C376.2,236.9,378,231.5,379.2,224.3z"/>
		<path id="Light" class="st10" d="M358,217.8v-8.5l18.3,8.5H358z"/>
	</g>
</g>
<path class="st11" d="M404,285.5H175.5c-2.4,0-4.4,2-4.4,4.4v5.8c0,2.4,2,4.4,4.4,4.4h87.1c0,0,0,0,0,0h0.4c0,0,0,0,0,0h22.9V412
	c-19.5,0.8-35.9,7.5-42.8,16.6H336c-6.7-9.1-23-15.7-42.4-16.6V300.2H404c2.4,0,4.4-2,4.4-4.4V290
	C408.5,287.5,406.4,285.5,404,285.5z"/>
<g>
	<g id="Head_Front_2_" transform="translate(82)">
		<g id="Head_1_" transform="translate(54 31)">
			<path id="Head-2_1_" class="st12" d="M14.5,202.9l6.3-29.5c-3.5-4.2-5.9-9.2-5.6-14.9c1.1-16.2,23.9-12.6,28.3-4.4
				c4.4,8.2,3.9,29.2-1.8,30.6c-2.3,0.6-7.1-0.9-12.1-3.8l3.2,22L14.5,202.9L14.5,202.9z"/>
		</g>
		<path id="Hair_1_" class="st2" d="M73.4,208.2c-2.3-10.2-8.9-17.2-7.8-21.8c0.6-2.7,2.7-4.9,5.3-5.7c0,0,2.3-9.1,14.4-7.7
			c12.3,1.4,19.7,6.5,16.4,17.6c-2.9,0-6.6-1-11.5,0.8c-2.4,0.9-3.4,5.4-3.4,5.4h-2.3c0,0-3.3-5.4-6.5-3.9c-3.2,1.4-1.4,7-1.4,7
			l-1.1,8.5L73.4,208.2z"/>
	</g>
	<g id="Bottom_Skinny_Jeans_1_3_" transform="translate(0 187)">
		<g id="Seat" transform="translate(10 42)">
			<path id="Seat-2" class="st3" d="M177.2,195.1h-88c-6.7,0-12.3-5.4-12.3-12.3v-70.3c0-6.7,5.4-12.3,12.3-12.3H177
				c6.7,0,12.3,5.4,12.3,12.3v70.3C189.3,189.6,183.9,195.1,177.2,195.1z M101.5,121.8c-1.6,0-3,1.4-3,3v45.8c0,1.6,1.4,3,3,3h63.4
				c1.6,0,3-1.4,3-3v-45.8c0-1.6-1.4-3-3-3H101.5z"/>
		</g>
		<path id="LegLower" class="st1" d="M275.1,233.2c-15.1-18.3-25.3-32-30.6-40.9c-9.1-15.2-16.6-28.7-19-33.9
			c-5.6-12.3,12.9-18.1,17.1-12.4c6.3,8.7,19.9,36,40.6,82.1L275.1,233.2z"/>
		<path id="LegLower-2" class="st4" d="M244.2,227.9l-28.1-70.6c-5.9-12.9,22.9-21.3,27.3-15.3c10,13.5,33.8,67.2,36.8,71.2
			L244.2,227.9z"/>
		<g id="Lower_Leg" transform="translate(225.5 53) rotate(39)">
			<path id="LegLower-3" class="st12" d="M57.7,160.1c-0.8-9.6-2.2-42.9-0.8-58.3c0.4-4.4,0.9-8.7,1.3-12.8
				c1.3-11.9,23.4-11.5,21.7-0.2c-4.4,28.2-12.1,67.9-12.6,71.3C66.6,164.9,58.2,166.2,57.7,160.1z"/>
		</g>
		<g id="Right_Shoe_1_" transform="translate(173.086 107.429) rotate(30)">
			<path id="shoe_2_" class="st6" d="M51.6,88.9c-0.8-0.3-1.6,0.1-1.9,1c0,0,0,0,0,0.1l-1.5,5.2c0.1,2,0.4,4,0.6,6.1l43.1,0
				c0,0,1.6-5.6-1.9-5.9c-3.7-0.5-6.1-0.8-6.1-0.8l-20-9c-0.4-0.1-0.9,0-1,0.4l0,0l-1.3,3.2c0,0-3.3,1.5-5.4,1.5L51.6,88.9z"/>
		</g>
		<g id="Right_Shoe-2" transform="translate(288 132)">
			<path id="shoe-2_2_" class="st6" d="M-17.2,97.4c-0.8-0.3-1.6,0.1-1.9,1c0,0,0,0,0,0.1l-1.5,5.2c0.1,2,0.4,4,0.6,6.1h43.1
				c0,0,1.6-5.6-1.9-5.9s-6.1-0.8-6.1-0.8l-20-9c-0.4-0.1-0.9,0-1,0.4l0,0l-1.3,3.2c0,0-3.3,1.5-5.4,1.5L-17.2,97.4z"/>
		</g>
		<path id="Leg_and_Butt" class="st5" d="M206.1,160.9c0,0-34.9-5.7-46.8-7.8c-22.5-3.9-29.1-16.1-25.3-42.6h41.5
			c8.2,2.4,68.9,29.5,68.9,29.5c7.3,3.7,5.9,14.3,4.6,17.8c-0.1,0.3-36.8,63.1-36.8,63.1l-34-21.6l27.8-35.7
			C206.1,163.4,207.3,161.3,206.1,160.9z"/>
	</g>
	<g id="Body_Long_Sleeve_1_1_" transform="translate(22 82)">
		<path id="Skin_1_" class="st12" d="M68.4,271.8c-0.9-0.5-1.8-2.5,0.5-4c5.6-3.8,13.7-10.6,14.8-12.8c2.3-4.6,9.9-48.8,9.9-48.8
			l15.9,0.1c0,0-14.8,47.7-15.9,50.6c-1.8,4.4,2,11,3.5,14.7c-2.5,1.1-3.7-0.3-4.9-1.8c-1.4-1.5-2.9-3-6.2-1.5
			c-4.3,2-8,5.2-12.1,5.2C71.8,273.5,70,272.8,68.4,271.8z M205.9,228.8l-24.2-10l5.4-13.3l24.4,17.8c5.8,1.4,11.4,3.7,16.6,6.7
			c1,1,2.3,2.9-2,2.5s-9-0.5-9.5,1c-0.6,1.5,2,3.3,0.8,5.3c-0.1,0.1-0.3,0.3-0.5,0.3C215.4,239.2,211.7,235.8,205.9,228.8z"/>
		
			<linearGradient id="Coat_Back_00000072256629130806929910000002508875044350860957_" gradientUnits="userSpaceOnUse" x1="94.9574" y1="762.2" x2="166.2312" y2="762.2" gradientTransform="matrix(1 0 0 1 44 -578)">
			<stop  offset="0" style="stop-color:#FF3E7D"/>
			<stop  offset="0.57" style="stop-color:#FD8678"/>
			<stop  offset="1" style="stop-color:#FFC562"/>
		</linearGradient>
		<path id="Coat_Back_1_" style="fill:url(#Coat_Back_00000072256629130806929910000002508875044350860957_);" d="M139,139.1
			l6.6-1.1c24.5,21.1,34.5,61.9,64.6,83.4l-7.2,9C150.9,223.9,137.8,174.3,139,139.1z"/>
		<path id="Shirt_1_" class="st8" d="M110.1,222.2h58.4c2.7,0,2.2-3.8,1.8-5.8c-4.4-22.5-21.9-46.7-21.9-78.7l-16.8-2.7
			C117.7,157.5,112.9,185.2,110.1,222.2z"/>
		
			<linearGradient id="Coat_Front_00000176010728579320611690000006291272558182942114_" gradientUnits="userSpaceOnUse" x1="39.3483" y1="771.38" x2="108.3612" y2="771.38" gradientTransform="matrix(1 0 0 1 44 -578)">
			<stop  offset="0" style="stop-color:#FF3E7D"/>
			<stop  offset="0.57" style="stop-color:#FD8678"/>
			<stop  offset="1" style="stop-color:#FFC562"/>
		</linearGradient>
		<path id="Coat_Front_1_" style="fill:url(#Coat_Front_00000176010728579320611690000006291272558182942114_);" d="M83.4,254.2
			c-1.4-43.6,15.2-77.2,29-97.4c-3.2-0.1-6.1-1.9-7.6-4.7c-6.2-11.1-3.9-17.1,2.7-19.2c6.6-2,12.4,2.2,22.9,2.2c0.4,0,0.9,0,1.3,0.1
			l5.6,0.4c0,0,22.8,76.9,12.5,102.7h-46.2c-2.3,5.4-4.8,10.9-7.6,16.1H83.4V254.2z"/>
		<path id="Shade_1_" class="st10" d="M120.9,238.2h-17.3c3.2-7.6,6.7-16.9,10.4-28C115.4,223.8,117.8,233.1,120.9,238.2
			L120.9,238.2z"/>
	</g>
</g>
<g>
	<path id="Fill_19_3_" class="st15" d="M9,274.7c11.5,19.3,24.9,37.9,32.9,59.1c-0.3-2.5-0.7-5-1.1-7.5c-2.1-13.2-4.6-26.2-7.3-39.2
		c-1.4-6.7-2.8-13.3-4.2-19.9c-0.8-3.5-1.6-7.1-2.4-10.6c-0.2-0.9-0.4-2.4-0.6-3.8c7.9,25.7,15.3,51.3,20.8,77.7
		c0.7,3.4,1.4,6.9,1.9,10.3c0.2-0.8,0.3-1.6,0.5-2.4C51.8,329,55,319.8,59,311c1.9-4.2,4.1-8.3,6.7-12.1c1.6-2.4,5.4-5.2,6.9-7.7
		c-8.1,14.7-10.9,33.1-15.5,49c-1.1,3.9-2.3,7.8-3.3,11.7c7-14,17.8-25.5,32.8-30.5c-18.2,12.1-29.2,33.1-36.6,54.8
		c0,0.3-0.1,0.5-0.1,0.8c2.2-4.1,4.9-7.9,8.6-10.4c8-5.6,16.7-3.9,24.4,0.8c-6-3.8-16.9-0.3-22,3.5c-3.6,2.8-6.8,6.5-9.4,10.2
		c-0.7,0.9-1.6,1.9-2.5,2.9c-1.3,8.6-3.4,17-6.5,25.3c0.5-2.4,0.1-6.2,0.3-8.1c0-0.2,0-0.4,0-0.6c-0.5,1.9-0.9,3.6-1.3,5.4
		c0.8-3.4,1.4-7,1.7-10.5c0.1-1.6,0.2-3,0.3-4.6c0-2.9-0.2-5.8-0.4-8.7c-0.7-2.9-1.6-5.5-2.2-7.8c-2.5-8.1-5.9-15.8-10.2-23
		c-3.9-6.6-8.6-12.6-14.2-18c-2.9-2.9-6-5.7-9-8.5c-1.1-1-3-3.5-4.7-4.8c12.4,6.8,25.1,14.2,34.1,25.2c-1.1-4-2.2-8.1-3.4-12
		C27.4,313.4,19.6,292.8,9,274.7z"/>
	<path id="Base_7_" class="st16" d="M21.4,384c0,22.1,1.8,40,25.3,40S72,406.1,72,384"/>
</g>
<g>
	<g>
		<g>
			<g>
				<path class="st17" d="M355.5,239.5c0,0.1,0,0.1,0,0.2c0.6,2.8-1.1,5.5-3.9,6.2l-8.6,2.1l-3-9.1l8.4-3.1
					C351.5,234.6,354.8,236.4,355.5,239.5z"/>
			</g>
		</g>
		<g>
			<g>
				<g>
					<path class="st18" d="M352.7,245.4c0,0,0.1-0.4,0.3-1.2c0.2-1,0.5-1.8,0.7-2.8c0.2-0.9,0.4-1.8,0.6-2.8
						c0.2-0.7,0.3-1.2,0.3-1.1c0,0,0,0.5-0.1,1.2c-0.1,0.7-0.3,1.7-0.6,2.8c-0.3,1.1-0.5,2.1-0.7,2.8
						C352.8,245,352.7,245.5,352.7,245.4z"/>
				</g>
			</g>
		</g>
		<g>
			<g>
				<g>
					<path class="st18" d="M350.2,246.3c-0.1,0,0.3-2.3,0.8-5.2c0.5-2.8,1-5.1,1.1-5.1c0.1,0-0.3,2.3-0.8,5.2
						C350.8,244,350.3,246.3,350.2,246.3z"/>
				</g>
			</g>
		</g>
		<g>
			<g>
				<g>
					<path class="st18" d="M347.3,246.8c-0.1,0,0.4-2.5,1.1-5.7c0.6-3.1,1.2-5.6,1.3-5.6c0.1,0-0.4,2.5-1.1,5.7
						C347.9,244.3,347.3,246.8,347.3,246.8z"/>
				</g>
			</g>
		</g>
		<g>
			<g>
				<g>
					<path class="st18" d="M345,244.6c0,0,0-0.5,0.1-1.2c0.1-0.7,0.2-1.8,0.4-2.9c0.2-1.1,0.4-2.1,0.6-2.8c0.2-0.7,0.3-1.2,0.4-1.2
						c0,0-0.1,0.5-0.2,1.2c-0.2,1-0.4,1.9-0.6,2.8c-0.2,1-0.3,1.8-0.5,2.9C345.2,244.2,345.1,244.6,345,244.6z"/>
				</g>
			</g>
		</g>
		<g>
			<g>
				<g>
					<path class="st18" d="M342.9,240.1c-0.1,0,0-0.6,0.2-1.4c0.2-0.7,0.4-1.3,0.4-1.3c0.1,0,0,0.6-0.2,1.4
						C343.2,239.5,343,240.1,342.9,240.1z"/>
				</g>
			</g>
		</g>
		<g>
			<g>
				<g>
					<path class="st18" d="M345.5,245.4c0-0.1,1.2,0.1,2.7,0.3c1.5,0.2,2.7,0.5,2.7,0.5c0,0.1-1.2-0.1-2.7-0.3
						C346.7,245.6,345.5,245.4,345.5,245.4z"/>
				</g>
			</g>
		</g>
		<g>
			<g>
				<g>
					<path class="st18" d="M343.8,242.4c0-0.1,2.4,0.3,5.3,0.8c2.9,0.5,5.3,1,5.3,1c0,0.1-2.4-0.3-5.3-0.8
						C346.2,242.9,343.8,242.4,343.8,242.4z"/>
				</g>
			</g>
		</g>
		<g>
			<g>
				<g>
					<path class="st18" d="M342.5,239.6c0-0.1,3,0.3,6.6,0.8c3.7,0.5,6.6,1,6.6,1.1c0,0.1-3-0.3-6.6-0.8
						C345.5,240.1,342.5,239.6,342.5,239.6z"/>
				</g>
			</g>
		</g>
		<g>
			<g>
				<g>
					<path class="st18" d="M345.2,237c0-0.1,2.2,0.2,5,0.6c2.8,0.4,5,0.8,5,0.8c0,0.1-2.2-0.2-5-0.6
						C347.4,237.5,345.2,237.1,345.2,237z"/>
				</g>
			</g>
		</g>
	</g>
	<g>
		<g>
			<path class="st18" d="M342.4,237.6L346,248l-16.7,5.3c-1.6,0.4-3.2-0.5-3.7-2.1l-1.1-3.2c-0.5-1.5,0.2-3.2,1.7-3.8L342.4,237.6z"
				/>
		</g>
	</g>
	<g>
		<g>
			<path class="st17" d="M337.6,285.5h5.2v-39.3c0-1.3-1.1-2.4-2.4-2.4H340c-1.3,0-2.4,1.1-2.4,2.4V285.5z"/>
		</g>
	</g>
	<g>
		<g>
			<path class="st18" d="M338.5,246.9c0,0.9,0.7,1.7,1.7,1.7c0.9,0,1.7-0.7,1.7-1.7c0-0.9-0.7-1.7-1.7-1.7
				C339.2,245.2,338.5,246,338.5,246.9z"/>
		</g>
	</g>
	<g>
		<g>
			<polygon class="st18" points="326.8,249.7 321.9,251.1 321.6,249.7 326.8,248.2 			"/>
		</g>
	</g>
	<g>
		<g>
			<g>
				<path class="st19" d="M314.7,300.2c0.2,1.3,1,12.8,1.6,13.9c0.3,0.6,0.8,1,1.4,1.2c0.6,0.2,1.3,0.2,1.9-0.1
					c0.6-0.3,1.2-0.7,1.6-1.3c0.4-0.6,0.6-1.3,0.8-2c0.3-1.4,0.1-3,0-4.6c-0.2-3.1-0.3-6.4-0.5-9.7c-0.7-13.3-1.2-25.4-1.7-34.2
					c-0.1-2.2-0.2-4.2-0.2-5.9c0.1-1.7,0.3-3.3,0.7-4.4c0.4-1.2,1-2,1.4-2.4c0.4-0.5,0.7-0.7,0.7-0.7c0,0-0.2,0.2-0.7,0.7
					c-0.4,0.5-0.9,1.3-1.3,2.4c-0.4,1.1-0.6,2.6-0.6,4.4c0,1.7,0.1,3.7,0.3,5.9c0.5,8.8,1.1,20.9,1.8,34.2c0.2,3.3,0.3,6.6,0.5,9.7
					c0.1,1.6,0.2,3.1,0,4.7c-0.1,0.8-0.4,1.5-0.9,2.2c-0.5,0.6-1.1,1.2-1.8,1.5c-0.7,0.3-1.5,0.4-2.3,0.1c-0.7-0.3-1.3-0.8-1.6-1.5
					c-0.7-1.3-1.4-12.9-1.7-14.1"/>
			</g>
		</g>
	</g>
</g>
<g>
	<g>
		<g>
			<g>
				<path class="st17" d="M211.6,239.7c0,0.1,0,0.1,0,0.2c-0.6,2.8,1.1,5.5,3.9,6.2l8.6,2.1l3-9.1l-8.4-3.1
					C215.5,234.8,212.3,236.6,211.6,239.7z"/>
			</g>
		</g>
		<g>
			<g>
				<g>
					<path class="st18" d="M214.4,245.6c0,0-0.2-0.4-0.4-1.1c-0.2-0.7-0.5-1.7-0.7-2.8c-0.3-1.1-0.4-2.1-0.6-2.8
						c-0.1-0.7-0.2-1.2-0.1-1.2c0,0,0.1,0.4,0.3,1.1c0.2,1,0.4,1.9,0.6,2.8c0.2,0.9,0.4,1.8,0.7,2.8
						C214.3,245.1,214.5,245.6,214.4,245.6z"/>
				</g>
			</g>
		</g>
		<g>
			<g>
				<g>
					<path class="st18" d="M216.8,246.4c-0.1,0-0.5-2.3-1.1-5.1c-0.5-2.8-0.9-5.2-0.8-5.2c0.1,0,0.5,2.3,1.1,5.1
						C216.5,244.1,216.9,246.4,216.8,246.4z"/>
				</g>
			</g>
		</g>
		<g>
			<g>
				<g>
					<path class="st18" d="M219.8,247c-0.1,0-0.6-2.5-1.3-5.6c-0.6-3.1-1.1-5.6-1.1-5.7c0.1,0,0.6,2.5,1.3,5.6
						C219.4,244.4,219.9,247,219.8,247z"/>
				</g>
			</g>
		</g>
		<g>
			<g>
				<g>
					<path class="st18" d="M222,244.8c0,0-0.1-0.4-0.2-1.2c-0.2-1-0.3-1.9-0.5-2.9c-0.2-0.9-0.4-1.8-0.6-2.8
						c-0.1-0.7-0.2-1.2-0.2-1.2c0,0,0.2,0.4,0.4,1.2c0.2,0.7,0.4,1.7,0.6,2.8c0.2,1.1,0.4,2.1,0.4,2.9
						C222,244.3,222.1,244.8,222,244.8z"/>
				</g>
			</g>
		</g>
		<g>
			<g>
				<g>
					<path class="st18" d="M224.1,240.2c-0.1,0-0.2-0.6-0.4-1.3c-0.2-0.7-0.3-1.4-0.2-1.4c0.1,0,0.2,0.6,0.4,1.3
						C224.1,239.6,224.2,240.2,224.1,240.2z"/>
				</g>
			</g>
		</g>
		<g>
			<g>
				<g>
					<path class="st18" d="M221.6,245.5c0,0.1-1.2,0.3-2.7,0.5c-1.5,0.2-2.7,0.4-2.7,0.3c0-0.1,1.2-0.3,2.7-0.5
						C220.4,245.6,221.6,245.4,221.6,245.5z"/>
				</g>
			</g>
		</g>
		<g>
			<g>
				<g>
					<path class="st18" d="M223.3,242.5c0,0.1-2.4,0.5-5.3,1c-2.9,0.5-5.3,0.9-5.3,0.8c0-0.1,2.4-0.5,5.3-1
						C220.9,242.8,223.2,242.4,223.3,242.5z"/>
				</g>
			</g>
		</g>
		<g>
			<g>
				<g>
					<path class="st18" d="M224.5,239.7c0,0.1-2.9,0.5-6.6,1.1c-3.7,0.5-6.6,0.9-6.6,0.8c0-0.1,2.9-0.5,6.6-1.1
						C221.6,240,224.5,239.6,224.5,239.7z"/>
				</g>
			</g>
		</g>
		<g>
			<g>
				<g>
					<path class="st18" d="M221.9,237.2c0,0.1-2.2,0.4-5,0.8c-2.8,0.4-5,0.7-5,0.6c0-0.1,2.2-0.4,5-0.8
						C219.6,237.4,221.9,237.1,221.9,237.2z"/>
				</g>
			</g>
		</g>
	</g>
	<g>
		<g>
			<g>
				<g>
					<path class="st17" d="M211.6,239.7c0,0.1,0,0.1,0,0.2c-0.6,2.8,1.1,5.5,3.9,6.2l8.6,2.1l3-9.1l-8.4-3.1
						C215.5,234.8,212.3,236.6,211.6,239.7z"/>
				</g>
			</g>
			<g>
				<g>
					<g>
						<path class="st18" d="M214.4,245.6c0,0-0.2-0.4-0.4-1.1c-0.2-0.7-0.5-1.7-0.7-2.8c-0.3-1.1-0.4-2.1-0.6-2.8
							c-0.1-0.7-0.2-1.2-0.1-1.2c0,0,0.1,0.4,0.3,1.1c0.2,1,0.4,1.9,0.6,2.8c0.2,0.9,0.4,1.8,0.7,2.8
							C214.3,245.1,214.5,245.6,214.4,245.6z"/>
					</g>
				</g>
			</g>
			<g>
				<g>
					<g>
						<path class="st18" d="M216.8,246.4c-0.1,0-0.5-2.3-1.1-5.1c-0.5-2.8-0.9-5.2-0.8-5.2c0.1,0,0.5,2.3,1.1,5.1
							C216.5,244.1,216.9,246.4,216.8,246.4z"/>
					</g>
				</g>
			</g>
			<g>
				<g>
					<g>
						<path class="st18" d="M219.8,247c-0.1,0-0.6-2.5-1.3-5.6c-0.6-3.1-1.1-5.6-1.1-5.7c0.1,0,0.6,2.5,1.3,5.6
							C219.4,244.4,219.9,247,219.8,247z"/>
					</g>
				</g>
			</g>
			<g>
				<g>
					<g>
						<path class="st18" d="M222,244.8c0,0-0.1-0.4-0.2-1.2c-0.2-1-0.3-1.9-0.5-2.9c-0.2-0.9-0.4-1.8-0.6-2.8
							c-0.1-0.7-0.2-1.2-0.2-1.2c0,0,0.2,0.4,0.4,1.2c0.2,0.7,0.4,1.7,0.6,2.8c0.2,1.1,0.4,2.1,0.4,2.9
							C222,244.3,222.1,244.8,222,244.8z"/>
					</g>
				</g>
			</g>
			<g>
				<g>
					<g>
						<path class="st18" d="M224.1,240.2c-0.1,0-0.2-0.6-0.4-1.3c-0.2-0.7-0.3-1.4-0.2-1.4c0.1,0,0.2,0.6,0.4,1.3
							C224.1,239.6,224.2,240.2,224.1,240.2z"/>
					</g>
				</g>
			</g>
			<g>
				<g>
					<g>
						<path class="st18" d="M221.6,245.5c0,0.1-1.2,0.3-2.7,0.5c-1.5,0.2-2.7,0.4-2.7,0.3c0-0.1,1.2-0.3,2.7-0.5
							C220.4,245.6,221.6,245.4,221.6,245.5z"/>
					</g>
				</g>
			</g>
			<g>
				<g>
					<g>
						<path class="st18" d="M223.3,242.5c0,0.1-2.4,0.5-5.3,1c-2.9,0.5-5.3,0.9-5.3,0.8c0-0.1,2.4-0.5,5.3-1
							C220.9,242.8,223.2,242.4,223.3,242.5z"/>
					</g>
				</g>
			</g>
			<g>
				<g>
					<g>
						<path class="st18" d="M224.5,239.7c0,0.1-2.9,0.5-6.6,1.1c-3.7,0.5-6.6,0.9-6.6,0.8c0-0.1,2.9-0.5,6.6-1.1
							C221.6,240,224.5,239.6,224.5,239.7z"/>
					</g>
				</g>
			</g>
			<g>
				<g>
					<g>
						<path class="st18" d="M221.9,237.2c0,0.1-2.2,0.4-5,0.8c-2.8,0.4-5,0.7-5,0.6c0-0.1,2.2-0.4,5-0.8
							C219.6,237.4,221.9,237.1,221.9,237.2z"/>
					</g>
				</g>
			</g>
		</g>
		<g>
			<g>
				<path class="st18" d="M224.7,237.8l-3.5,10.4l16.7,5.3c1.6,0.4,3.2-0.5,3.7-2.1l1.1-3.2c0.5-1.5-0.2-3.2-1.7-3.8L224.7,237.8z"
					/>
			</g>
		</g>
		<g>
			<g>
				<path class="st17" d="M229.5,285.6h-5.2v-39.3c0-1.3,1.1-2.4,2.4-2.4h0.4c1.3,0,2.4,1.1,2.4,2.4V285.6z"/>
			</g>
		</g>
		<g>
			<g>
				<path class="st18" d="M228.6,247c0,0.9-0.7,1.7-1.7,1.7s-1.7-0.7-1.7-1.7c0-0.9,0.7-1.7,1.7-1.7S228.6,246.1,228.6,247z"/>
			</g>
		</g>
		<g>
			<g>
				<polygon class="st18" points="240.3,249.9 245.1,251.3 245.5,249.9 240.3,248.3 				"/>
			</g>
		</g>
		<g>
			<g>
				<g>
					<path class="st18" d="M266.4,308.3c-0.7-1.9-1.9-3.6-3.2-5.2c-0.4-0.5-0.9-1-1.3-1.5c0.4-0.5,0.9-1,1.2-1.5h-0.4
						c-0.3,0.4-0.7,0.8-1.1,1.2c-0.4-0.4-0.8-0.8-1.2-1.2c-1.9-1.9-3.7-3.8-4.8-6.2c-0.8-1.7-1-3.6-0.9-5.5c0.1-1,0.2-2,0.4-3
						c0.1-0.8,0.3-1.6,0.5-2.4c0.9-3.4,1.9-6.8,1.7-10c-0.1-3.2-0.9-6.1-2-8.6c-1.1-2.5-2.4-4.6-3.7-6.3c-1.3-1.7-2.5-3.1-3.6-4.2
						c-1-1.1-1.9-1.9-2.5-2.4c-0.3-0.2-0.5-0.4-0.7-0.6c-0.1-0.1-0.2-0.2-0.2-0.2c0,0,0.1,0.1,0.2,0.2c0.2,0.2,0.4,0.4,0.6,0.6
						c0.6,0.6,1.4,1.4,2.4,2.5c1,1.1,2.2,2.5,3.5,4.2c1.2,1.7,2.6,3.8,3.6,6.3c1,2.5,1.8,5.3,1.9,8.5c0.1,3.2-0.8,6.4-1.8,9.9
						c-0.2,0.8-0.4,1.6-0.6,2.5c-0.2,1-0.4,1.9-0.4,2.9c-0.1,1.9,0.1,3.9,1,5.7c1,2.3,2.8,4.2,4.5,6c0.5,0.6,1.1,1.1,1.6,1.7
						c0,0,0,0,0,0c-0.9,1-1.9,2-2.9,3.1c-1,1.1-1.9,2.4-2.6,3.9c-0.6,1.5-1.1,3.1-0.9,4.9c0.2,1.7,1.1,3.5,2.7,4.5
						c1.6,1,3.7,1.3,5.5,0.5c1.8-0.8,3.1-2.5,3.7-4.4C267.2,312.3,267.1,310.2,266.4,308.3z M266.2,314.1c-0.5,1.8-1.7,3.4-3.4,4.1
						c-1.6,0.7-3.6,0.4-5-0.5c-1.5-0.9-2.3-2.5-2.5-4.1c-0.2-1.6,0.2-3.2,0.8-4.7c1.3-2.9,3.5-4.9,5.3-6.9c0,0,0,0,0,0
						c0.4,0.5,0.9,0.9,1.3,1.4c1.3,1.5,2.5,3.2,3.2,5.1C266.6,310.3,266.7,312.3,266.2,314.1z"/>
				</g>
			</g>
		</g>
	</g>
</g>
<g>
	<g>
		<g>
			<circle class="st20" cx="382.8" cy="203.7" r="7.2"/>
		</g>
	</g>
	<g>
		<g>
			<path class="st20" d="M381.8,197.5c-0.1-4-0.1-8-0.2-12.1c-0.1-0.8-0.3-3.5-0.8-6.3c-0.2-1-0.4-2.3-1.4-3.5c0,0-0.1-0.1-0.1-0.1
				c0,0,0.1,0,0.2,0c1-0.2,1.8,0,2.4,0.1c0.5,0.1,1.2,0.3,1.9,0.7c0.5,7.1,1.1,14.1,1.6,21.2"/>
		</g>
	</g>
	<g class="st21">
		<g>
			<circle cx="382.8" cy="203.7" r="3"/>
		</g>
	</g>
</g>
<g>
	<g>
		<g>
			<circle class="st20" cx="162.2" cy="197.3" r="7.2"/>
		</g>
	</g>
	<g>
		<g>
			<path class="st20" d="M163.3,190.9c0.1-4,0.1-8,0.2-12.1c0.1-0.8,0.1-2.5,0.1-2.7c0.1-1,0.4-2.1,1.4-3.3c0,0,0.1-0.1,0.1-0.1
				c0,0-0.1,0-0.2,0c-1-0.2-1.8-0.2-2.4-0.1c-0.5,0.1-1.2,0.3-1.9,0.7c-0.5,7.1-0.4,10.5-0.9,17.6"/>
		</g>
	</g>
	<g class="st21">
		<g>
			<circle cx="162.2" cy="197.3" r="3"/>
		</g>
	</g>
</g>
</svg>
