<svg xmlns="http://www.w3.org/2000/svg" width="396" height="301" viewBox="0 0 396 301" fill="none"><g clip-path="url(#clip0_850_13340)"><path d="M323.911 183.661C323.296 178.238 322.567 172.7 320.07 167.873C317.016 161.989 311.658 157.758 306.972 153.086C298.214 144.355 291.473 133.606 287.44 121.914C284.309 112.877 282.754 103.242 278.452 94.6853C275.821 89.4741 272.229 84.8013 269.252 79.7824C262.166 67.9369 258.325 53.9186 248.741 43.9961C246.897 56.0338 250.546 68.8023 258.459 78.0325C260.821 80.7823 263.548 83.2629 265.354 86.4166C268.619 92.147 268.311 99.1274 268.696 105.704C269.406 118.069 272.901 130.279 278.817 141.144C285.097 152.701 294.162 162.989 297.523 175.7C300.039 185.238 299.29 195.929 304.667 204.198C305.243 205.102 305.916 205.986 306.05 207.044C306.127 207.64 306.05 208.236 305.954 208.832L305.589 211.14C304.36 218.947 303.112 228.869 309.795 234.715C314.443 238.753 320.416 238.85 323.738 233.485C327.099 228.062 326.792 220.139 326.542 214.063C326.12 203.909 325.044 193.737 323.911 183.661V183.661Z" fill="#A1B97A"></path><path d="M335.972 177.392C333.36 168.354 329.327 159.758 327.291 150.566C325.332 141.663 325.313 132.452 325.313 123.337C325.313 113.338 325.313 103.358 325.294 93.3584C325.294 87.128 325.294 80.8784 324.256 74.7441C322.048 61.5334 315.192 49.3418 314.039 35.9965C313.54 30.2276 314.116 24.401 313.482 18.6514C313.117 15.3631 312.272 12.0172 310.755 9.09427C309.123 5.95985 304.609 6.09446 303.131 9.3058C299.808 16.5361 297.695 24.3241 299.04 32.0736C299.846 36.708 301.863 41.0346 303.361 45.5151C310.045 65.3985 306.492 87.3972 311.658 107.742C313.213 113.876 315.576 119.895 315.845 126.222C316.498 141.355 305.205 155.201 306.242 170.315C307.087 182.718 315.998 192.968 319.724 204.813C321.817 211.447 322.259 218.524 324.506 225.1C326.254 230.215 330.287 236.427 336.586 234.869C342.559 233.388 340.754 228.523 340.485 223.85C339.582 208.082 340.427 192.795 335.991 177.392H335.972Z" fill="#506743"></path><path d="M349.646 185.661C349.377 180.969 352.565 178.603 353.218 173.95C353.775 170.027 354.39 163.797 355.523 159.989C357.616 152.855 355.1 145.529 355.6 138.106C356.522 124.607 357.443 111.127 358.365 97.6276C359.806 76.6481 361.227 55.6302 365.145 34.9776C366.24 29.2472 367.449 23.036 364.876 17.8055C364.338 16.7095 363.263 15.5365 362.091 15.9018C361.265 16.171 360.843 17.0748 360.555 17.9017C351.989 41.1887 348.763 66.2834 339.198 89.1666C336.913 94.647 334.243 100.051 333.053 105.877C331.631 112.877 332.419 120.107 332.592 127.241C332.861 137.471 331.862 147.798 329.039 157.643C327.56 162.797 325.582 167.835 324.775 173.123C323.757 179.719 324.621 186.449 325.236 193.103C326.446 205.89 326.869 218.755 326.465 231.6C326.235 239.157 332.592 238.946 336.817 234.312C339.775 231.062 339.736 227.504 340.754 223.466C344.077 210.217 350.434 200.025 349.627 185.661H349.646Z" fill="#A1B97A"></path><path d="M309.891 206.121C304.264 197.064 293.048 191.93 289.457 181.872C288.535 179.315 288.189 176.565 287.056 174.104C284.578 168.604 278.932 165.508 273.382 162.989C272.613 162.643 271.73 163.201 271.73 164.047C271.73 165.393 272.345 166.681 273.458 167.431C277.741 170.315 280.987 174.719 282.427 179.68C284.137 185.565 283.407 192.006 285.539 197.756C287.325 202.583 291.012 206.525 292.741 211.371C294.315 215.793 294.162 220.639 294.892 225.293C295.641 229.946 297.696 234.869 301.959 236.831C317.381 243.946 313.521 211.967 309.891 206.121Z" fill="#506743"></path><path d="M373.998 203.14C373.749 207.525 374.421 212.101 372.712 216.139C371.617 218.716 369.658 220.812 368.026 223.101C362.36 231.139 360.286 242.523 351.567 247.041C350.99 247.349 350.357 247.599 349.704 247.484C348.801 247.311 348.225 246.465 347.86 245.618C345.728 240.638 348.129 235.023 349.55 229.773C349.8 228.85 350.011 227.831 349.569 226.985C349.089 226.062 347.994 225.658 347.245 224.927C345.747 223.485 345.901 221.082 346.189 219.024C346.919 213.87 347.975 208.775 349.3 203.736C350.049 200.89 350.933 198.006 352.565 195.564C354.371 192.872 357.002 190.853 359.46 188.737C370.311 179.392 378.627 167.085 383.294 153.528C384.293 150.586 385.195 147.49 387.289 145.182C389.363 142.875 393.089 141.702 395.624 143.49C397.429 144.759 390.035 156.662 389.171 158.085C386.712 162.162 386.674 165.719 385.291 170.238C381.892 181.334 374.651 191.256 373.998 203.16V203.14Z" fill="#A1B97A"></path><path d="M365.394 208.198C367.008 204.025 368.64 199.794 369.159 195.352C369.754 190.41 368.967 185.353 369.812 180.449C370.887 174.142 374.575 168.604 376.38 162.47C377.686 158.047 378.012 153.393 378.8 148.836C381.047 135.817 387.173 123.087 385.406 109.992C385.022 107.146 383.736 103.819 380.912 103.339C378.358 102.896 376.034 105.242 375.362 107.761C374.69 110.281 375.189 112.934 375.362 115.53C375.881 122.761 373.806 130.164 369.62 136.087C365.606 141.779 359.767 146.067 356.157 152.009C351.72 159.316 351.125 168.239 348.859 176.469C344.365 192.872 333.072 207.178 331.017 224.062C330.191 230.773 331.766 238.946 337.969 241.638C355.888 249.407 361.285 218.735 365.337 208.236L365.394 208.198Z" fill="#506743"></path><path d="M334.09 229.023H292.99C290.186 229.023 288.112 231.658 288.765 234.408L303.745 297.673C304.206 299.635 305.954 301.038 307.97 301.038H357.347C359.364 301.038 361.112 299.654 361.573 297.673L376.553 234.408C377.206 231.658 375.132 229.023 372.328 229.023H334.09V229.023Z" fill="#F59C00"></path></g><g clip-path="url(#clip1_850_13340)"><path d="M169.347 28.4321C166.097 35.9716 163.606 43.26 162.397 50.7499C161.189 58.2398 160.771 65.8756 158.908 73.2341C157.261 79.7341 154.513 85.9012 151.564 91.9223C151.295 92.4712 151.018 93.0436 151.021 93.6568C151.024 94.8511 152.055 95.7592 153.015 96.4629C167.656 107.168 187.962 109.586 204.709 102.618" fill="#3F5D6D"></path><path d="M165.449 78.9574C173.419 78.9574 179.88 70.9238 179.88 61.0139C179.88 51.1039 173.419 43.0703 165.449 43.0703C157.479 43.0703 151.018 51.1039 151.018 61.0139C151.018 70.9238 157.479 78.9574 165.449 78.9574Z" fill="#F59C00"></path><path d="M172.238 81.498C180.208 81.498 186.669 73.4644 186.669 63.5544C186.669 53.6445 180.208 45.6108 172.238 45.6108C164.268 45.6108 157.807 53.6445 157.807 63.5544C157.807 73.4644 164.268 81.498 172.238 81.498Z" fill="#F59C00"></path><path d="M204.706 102.674L174.594 39.502C171.262 50.601 167.931 61.7029 164.783 72.8545C163.738 76.5658 162.704 80.3064 162.359 84.1462C162.059 87.5072 162.289 90.9119 163.043 94.1999C163.778 97.4031 165.052 100.563 167.297 102.963C167.703 103.395 168.167 103.757 168.62 104.14C180.376 107.708 193.344 107.401 204.706 102.674V102.674Z" fill="#3F5D6D"></path><path d="M198.378 100.501C199.738 108.169 200.866 116.874 196.106 123.038C195.064 124.39 193.703 125.71 193.63 127.415C193.531 129.652 195.668 131.296 197.671 132.298C205.412 136.17 214.774 136.654 222.871 133.603C223.543 133.349 224.235 133.054 224.684 132.496C225.703 131.238 225.049 129.386 224.424 127.891C218.678 114.173 218.841 98.0925 224.868 84.4939" fill="#FFBC96"></path><path d="M197.698 98.2676C199.026 103.655 199.902 108.838 199.313 114.354C199.292 114.541 199.28 114.757 199.409 114.894C199.584 115.081 199.888 115.008 200.127 114.921C201.894 114.281 203.684 113.633 205.234 112.573C207.851 110.789 210.928 107.509 212.275 104.645C214.135 100.685 215.049 96.8076 214.713 92.4451" fill="#D88D6C"></path><path d="M179.964 29.4749C174.498 35.5777 173.222 44.2706 172.504 52.4321C171.87 59.6241 171.482 66.895 172.504 74.0403C173.523 81.1885 176.034 88.2608 180.656 93.806C182.604 96.142 184.908 98.1831 187.463 99.8358C189.224 100.975 191.128 101.941 193.177 102.379C197.076 103.214 201.102 102.099 204.893 100.87C213.533 98.0692 222.427 94.2819 227.759 86.9322C234.709 77.3516 239.302 52.1489 241.107 40.4512" fill="#FFBC96"></path><g style="mix-blend-mode:multiply" opacity="0.5"><g style="mix-blend-mode:multiply" opacity="0.5"><path d="M169.076 36.909C177.152 43.8937 187.183 48.595 197.718 50.3324C203.827 51.3398 210.052 51.3661 216.24 51.2347C218.558 51.185 220.894 51.112 223.149 50.5601C226.27 49.798 229.243 48.0314 230.948 45.307C232.653 42.5826 232.884 38.8508 231.071 36.1965" fill="#D28572"></path></g></g><path d="M238.803 4.96983C223.403 -2.47624 201.102 -0.934466 189.895 5.48084C178.688 11.8961 174.045 17.6369 168.194 31.0019C167.843 31.799 165.823 36.7164 166.129 37.534C166.433 38.3428 166.824 38.7954 167.63 39.102C181.474 44.3844 193.645 45.3363 208.443 46.0692C213.372 46.3116 218.371 46.3233 223.166 45.1582C229.952 67.8906 226.416 84.1843 215.113 105.045C222.471 108.146 251.073 109.933 264.686 99.3889C268.196 96.6704 271.402 93.4525 273.537 89.5572C278.95 79.6787 276.626 67.4964 273.683 56.6222C271.493 48.5279 269.011 40.4423 265.033 33.0605C258.925 21.722 250.626 10.074 238.8 4.96983" fill="#3F5D6D"></path><path d="M248.716 97.8354C247.782 97.0937 246.938 96.1885 246.491 95.0847C245.621 92.9356 246.377 90.512 247.046 88.2898C248.179 84.5259 249.046 80.6335 248.909 76.7061C248.772 72.7786 247.548 68.7899 244.917 65.8699C241.11 61.6416 235.126 60.3043 229.546 59.1859C228.375 58.9523 227.204 58.7158 226.033 58.4822C228.118 74.7789 224.144 88.5001 215.18 105.048C222.538 108.149 251.14 109.936 264.753 99.3918C265.252 99.0063 265.722 98.5859 266.207 98.18C265.372 98.6501 264.537 99.1261 263.638 99.4765C258.758 101.377 252.822 101.091 248.719 97.8354H248.716Z" fill="#3F5D6D"></path><path d="M217.562 77.3513C220.676 77.3513 223.201 74.8269 223.201 71.7128C223.201 68.5987 220.676 66.0742 217.562 66.0742C214.448 66.0742 211.924 68.5987 211.924 71.7128C211.924 74.8269 214.448 77.3513 217.562 77.3513Z" fill="#FFBC96"></path><path d="M176.992 74.2708C179.615 74.2708 181.742 72.1438 181.742 69.5199C181.742 66.8961 179.615 64.769 176.992 64.769C174.368 64.769 172.241 66.8961 172.241 69.5199C172.241 72.1438 174.368 74.2708 176.992 74.2708Z" fill="#FFBC96"></path><path d="M198.169 98.6905C200.553 98.4606 202.34 96.7634 202.16 94.8997C201.98 93.036 199.902 91.7116 197.518 91.9415C195.135 92.1715 193.348 93.8687 193.528 95.7324C193.707 97.5961 195.786 98.9205 198.169 98.6905Z" fill="#F59C00"></path><path d="M205.695 95.9781C203.786 96.1621 201.826 96.2263 199.829 96.1475L199.902 94.2786C222.494 95.178 239.866 76.9308 240.038 76.7468L241.404 78.0258C241.241 78.201 226.206 94.0013 205.695 95.981V95.9781Z" fill="#F59C00"></path><path d="M166.594 44.3027C168.398 31.6444 175.032 17.6983 185.904 10.5384C195.639 4.12897 208.662 3.72016 219.391 7.83448C228.633 11.3794 234.753 19.281 237.769 28.4908C240.339 36.3339 240.683 44.3961 241.282 52.5459C241.478 55.2324 245.694 55.2557 245.496 52.5459C244.926 44.7874 244.611 37.061 242.488 29.5186C239.723 19.7015 234.061 10.6844 224.886 5.7525C213.971 -0.116752 199.502 -0.741637 188.222 4.43265C179.053 8.64041 172.349 16.8398 168.092 25.8014C165.51 31.2356 163.385 37.1954 162.532 43.1814C162.152 45.8328 166.211 46.9804 166.594 44.3027V44.3027Z" fill="#F59C00"></path><path d="M241.104 84.018C249.074 84.018 255.535 75.9844 255.535 66.0744C255.535 56.1645 249.074 48.1309 241.104 48.1309C233.134 48.1309 226.673 56.1645 226.673 66.0744C226.673 75.9844 233.134 84.018 241.104 84.018Z" fill="#F59C00"></path><path d="M243.376 83.1216C250.947 83.1216 257.085 75.4893 257.085 66.0745C257.085 56.6596 250.947 49.0273 243.376 49.0273C235.804 49.0273 229.666 56.6596 229.666 66.0745C229.666 75.4893 235.804 83.1216 243.376 83.1216Z" fill="#F59C00"></path><path d="M198.541 59.0605C194.707 57.0252 191.764 58.9787 191.729 59.0021L190.99 57.9129C191.136 57.8165 194.629 55.4951 199.16 57.9012L198.544 59.0634L198.541 59.0605Z" fill="#3F5D6D"></path><path d="M226.089 58.6954L222.649 58.6341V57.3201H225.908L226.089 58.6954Z" fill="#3F5D6D"></path><path d="M179.357 71.4151C172.486 71.4151 166.894 65.8262 166.894 58.9524C166.894 52.0787 172.483 46.4897 179.357 46.4897C186.231 46.4897 191.819 52.0787 191.819 58.9524C191.819 65.8262 186.231 71.4151 179.357 71.4151ZM179.357 47.9293C173.28 47.9293 168.331 52.8758 168.331 58.9553C168.331 65.0348 173.277 69.9814 179.357 69.9814C185.436 69.9814 190.383 65.0348 190.383 58.9553C190.383 52.8758 185.436 47.9293 179.357 47.9293Z" fill="#3F5D6D"></path><path d="M210.703 71.4151C203.832 71.4151 198.24 65.8262 198.24 58.9524C198.24 52.0787 203.829 46.4897 210.703 46.4897C217.577 46.4897 223.166 52.0787 223.166 58.9524C223.166 65.8262 217.577 71.4151 210.703 71.4151ZM210.703 47.9293C204.626 47.9293 199.677 52.8758 199.677 58.9553C199.677 65.0348 204.623 69.9814 210.703 69.9814C216.782 69.9814 221.729 65.0348 221.729 58.9553C221.729 52.8758 216.782 47.9293 210.703 47.9293Z" fill="#3F5D6D"></path><path d="M177.859 63.1427C177.844 64.5034 178.983 65.6364 180.402 65.6772C181.819 65.7181 182.984 64.6523 182.998 63.2945C183.013 61.9367 181.874 60.7979 180.458 60.757C179.039 60.7161 177.874 61.7819 177.859 63.1427Z" fill="#3F5D6D"></path><path d="M176.484 58.9875C176.811 59.3145 178.723 57.8253 181.494 57.7669C184.26 57.6676 186.324 59.043 186.616 58.6984C186.759 58.5436 186.42 57.948 185.521 57.3231C184.633 56.704 183.135 56.1142 181.41 56.1638C179.687 56.2135 178.25 56.8851 177.433 57.5538C176.598 58.2283 176.323 58.8415 176.484 58.9875V58.9875Z" fill="#3F5D6D"></path><path d="M204.142 63.1426C204.128 64.5033 205.266 65.6363 206.686 65.6772C208.102 65.718 209.267 64.6552 209.281 63.2944C209.296 61.9366 208.157 60.8007 206.741 60.7569C205.322 60.7131 204.157 61.7818 204.142 63.1426Z" fill="#3F5D6D"></path><path d="M203.865 58.9875C204.192 59.3145 206.11 57.8253 208.876 57.7669C211.638 57.6677 213.705 59.043 213.997 58.6984C214.14 58.5437 213.805 57.948 212.902 57.326C212.017 56.704 210.517 56.1171 208.791 56.1668C207.068 56.2193 205.631 56.888 204.814 57.5567C203.982 58.2312 203.704 58.8444 203.865 58.9904V58.9875Z" fill="#3F5D6D"></path><path d="M194.343 79.7021C194.351 79.5444 192.623 79.2874 189.828 78.9983C189.119 78.9429 188.447 78.8173 188.316 78.3384C188.138 77.8333 188.415 77.0624 188.736 76.2331C189.361 74.5074 190.012 72.6969 190.699 70.7989C193.417 63.0667 195.368 56.7156 195.055 56.6076C194.743 56.4996 192.284 62.6812 189.566 70.4164C188.911 72.3232 188.287 74.1394 187.694 75.8798C187.446 76.6886 187.008 77.6113 187.393 78.6625C187.595 79.1852 188.123 79.5561 188.579 79.667C189.034 79.7955 189.434 79.7926 189.785 79.8043C192.594 79.889 194.334 79.8598 194.343 79.7021V79.7021Z" fill="#3F5D6D"></path><path d="M202.921 47.427C203.213 48.1716 205.967 47.7512 209.226 48.0636C212.49 48.3118 215.13 49.1995 215.545 48.5133C215.729 48.1862 215.256 47.4883 214.178 46.7846C213.112 46.0838 211.419 45.4297 209.465 45.2604C207.512 45.0939 205.733 45.4472 204.563 45.9553C203.383 46.4634 202.796 47.0708 202.921 47.4241V47.427Z" fill="#3F5D6D"></path><path d="M187.224 47.427C186.932 48.1716 184.178 47.7512 180.919 48.0636C177.655 48.3118 175.015 49.1995 174.6 48.5133C174.416 48.1862 174.889 47.4883 175.967 46.7846C177.033 46.0838 178.726 45.4297 180.68 45.2604C182.633 45.0939 184.412 45.4472 185.583 45.9553C186.762 46.4634 187.349 47.0708 187.224 47.4241V47.427Z" fill="#3F5D6D"></path><g style="mix-blend-mode:multiply" opacity="0.25"><path d="M194.774 87.7787C194.722 86.0793 195.516 84.3536 196.897 83.3608C198.278 82.3679 200.226 82.1898 201.727 82.9899C203.228 83.7929 204.165 85.5771 203.885 87.2561C203.578 89.0869 201.926 90.5061 200.112 90.8886C198.933 91.1368 197.645 90.9966 196.62 90.363C195.592 89.7293 194.865 88.5788 194.877 87.3729" fill="#3F5D6D"></path></g><path d="M202.437 82.6046C202.04 82.5345 201.725 85.1918 199.228 86.8124C196.734 88.4388 193.934 87.8081 193.87 88.179C193.814 88.3425 194.439 88.7688 195.633 88.9411C196.801 89.1192 198.559 88.9411 200.086 87.9512C201.611 86.9555 202.387 85.4838 202.606 84.4034C202.837 83.3025 202.618 82.6105 202.434 82.6046H202.437Z" fill="#3F5D6D"></path><path d="M222.933 123.879C241.831 124.682 262.283 130.385 276.115 143.286C277.283 144.375 278.439 145.575 278.95 147.09C279.698 149.307 278.93 151.713 278.223 153.944C270.05 179.687 269.609 207.83 276.977 233.815C278.904 240.616 281.365 247.338 282.031 254.378C282.694 261.418 281.295 269.036 276.43 274.17C274.337 276.377 271.715 278.018 268.999 279.391C253.87 287.038 236.105 286.752 219.169 286.048C208.727 285.613 198.18 285.07 188.126 282.212C178.072 279.356 168.419 273.954 162.31 265.474C156.006 256.726 154.038 245.612 153.235 234.858C151.415 210.434 154.73 185.947 155.188 161.463C155.322 154.341 155.171 147.003 152.394 140.444C165.297 131.521 180.721 126.098 196.109 123.038C199.412 127.439 204.049 129.442 209.544 129.722C215.04 130.002 219.201 127.92 222.936 123.882" fill="#FFDB7E"></path><path opacity="0.25" d="M274.024 251.306C273.411 244.266 278.41 236.122 276.632 229.321C272.106 212.032 263.571 195.221 265.407 177.362C261.527 179.307 258.011 181.877 256.011 185.714C254.367 188.867 253.943 192.535 253.903 196.106C253.824 203.243 255.152 210.315 255.436 217.446C255.719 224.576 254.822 232.089 250.81 237.927C246.176 244.666 238.184 248.068 230.391 250.153C225.146 251.557 219.8 252.521 214.441 253.365C208.283 254.337 202.02 255.152 195.841 254.358C189.659 253.563 183.486 250.988 179.424 246.158C172.986 238.502 173.178 227.382 172.019 217.355C170.746 206.338 167.423 195.572 162.278 185.804C160.736 182.875 158.926 179.923 156.14 178.206C156.131 178.2 156.123 178.2 156.117 178.195C155.159 196.077 144.807 214.853 146.037 232.688C146.776 243.443 157.65 253.651 163.469 262.399C169.111 270.879 178.026 276.281 187.311 279.137C196.594 281.993 206.335 282.539 215.977 282.974C231.617 283.678 248.022 283.964 261.994 276.316C264.502 274.944 266.926 273.306 268.856 271.098C273.347 265.968 274.641 258.346 274.027 251.306H274.024Z" fill="#F59C00"></path><path d="M160.26 135.588C166.097 161.539 161.069 192.158 154.586 217.954C152.659 225.619 153.068 234.017 155.816 237.918C158.66 241.953 163.566 244.362 168.048 246.427C178.466 251.227 185.705 256.892 193.659 265.162C196.845 268.476 199.768 272.211 201.146 276.596C202.525 280.982 202.122 286.136 199.193 289.678C196.393 293.065 191.758 294.464 187.364 294.461C182.969 294.458 178.68 293.241 174.402 292.239C167.236 290.56 159.933 289.468 152.592 288.969C146.238 288.539 139.773 288.542 133.662 286.749C124.966 284.2 117.493 278.013 112.915 270.193C108.336 262.373 106.59 253.023 107.507 244.009C107.997 239.176 109.221 234.452 110.482 229.759C115.7 210.326 122.898 193.314 129.492 174.305C132.19 166.526 137.148 157.746 141.902 151.021C146.656 144.299 152.148 136.975 160.263 135.588" fill="#FFDB7E"></path><path d="M162.389 185.004C165.907 168.97 164.658 151.231 160.894 135.413C160.698 134.59 159.431 134.94 159.626 135.764C162.31 147.041 163.347 158.657 162.783 170.234C162.549 175.041 162.155 179.944 161.121 184.656C160.94 185.48 162.208 185.833 162.389 185.007V185.004Z" fill="white"></path><path d="M210.21 276.772C210.21 276.772 192.836 272.459 186.336 276.182C179.836 279.905 169.966 285.339 170.261 292.257L170.255 295.092C170.255 295.092 216.827 296.45 220.608 292.257" fill="#E8A17E"></path><path d="M262.107 133.635C270.631 134.622 279.952 144.553 285.847 153.141C291.746 161.725 295.755 171.44 299.723 181.071C307.152 199.102 314.58 217.13 322.009 235.161C324.313 240.75 326.628 246.389 327.747 252.328C328.675 257.257 328.76 262.347 327.992 267.305C327.364 271.367 326.117 275.44 323.577 278.67C319.985 283.239 314.315 285.564 308.883 287.628C297.419 291.985 285.66 296.07 273.426 296.914C268.605 297.247 263.763 297.072 258.933 296.893C245.592 296.406 232.195 295.912 219.069 293.483C218.126 293.308 217.145 293.106 216.386 292.516C215.6 291.906 215.159 290.966 214.745 290.063C213.425 287.178 212.105 284.294 210.785 281.409C210.049 279.797 209.293 278.097 209.436 276.331C209.626 273.962 211.369 272.035 213.115 270.423C217.743 266.143 223.07 262.621 228.819 260.043C240.648 254.734 254.156 253.408 265.27 246.73C266.616 245.921 267.927 245.028 269.005 243.886C273.101 239.538 272.856 232.533 270.561 227.02C268.263 221.504 266.654 216.242 264.397 210.709C259.377 198.407 256.872 190.377 256.597 179.862C256.206 164.891 257.327 147.832 262.107 133.641" fill="#FFDB7E"></path><path d="M217.04 267.431C218.602 269.542 219.799 271.983 220.865 274.369C223.628 280.562 225.193 287.26 225.669 294.017C225.727 294.855 227.044 294.864 226.983 294.017C226.504 287.208 224.95 280.515 222.238 274.246C221.122 271.67 219.852 269.034 218.176 266.765C217.679 266.093 216.538 266.747 217.04 267.428V267.431Z" fill="#F59C00"></path><path d="M256.668 185.714C255.576 168.558 256.895 150.037 262.741 133.813C263.027 133.016 261.757 132.671 261.474 133.463C255.593 149.78 254.253 168.465 255.354 185.714C255.406 186.554 256.723 186.56 256.668 185.714V185.714Z" fill="white"></path><path d="M0.619141 216.745L42.577 299.855L164.9 300.733L127.15 215.574L0.619141 216.745Z" fill="#ECECEC"></path><path d="M246.085 300.214L246.062 293.562H166.877L130.444 213.67H3.80197L0.619141 216.742H124.332L162.193 300.144C162.193 300.144 246.085 299.992 246.085 300.211V300.214Z" fill="#ECECEC"></path><g style="mix-blend-mode:multiply"><path d="M64.1385 262.607C65.5196 266.753 73.0212 269.954 80.8907 269.758C88.7601 269.562 94.022 266.041 92.6379 261.894C91.2568 257.748 83.7552 254.547 75.8857 254.743C68.0163 254.939 62.7544 258.46 64.1385 262.607Z" fill="#ECECEC"></path></g><path d="M162.193 300.678C162.266 300.678 162.342 300.663 162.412 300.631C162.678 300.512 162.798 300.196 162.675 299.928L124.674 216.213H0.619336C0.327333 216.213 0.0878906 216.45 0.0878906 216.745C0.0878906 217.04 0.324413 217.276 0.619336 217.276H123.99L161.711 300.369C161.799 300.564 161.992 300.678 162.193 300.678V300.678Z" fill="white"></path></g><defs><clipPath id="clip0_850_13340"><rect width="147.632" height="294.194" fill="white" transform="translate(248.28 6.80615)"></rect></clipPath><clipPath id="clip1_850_13340"><rect width="328.427" height="300.734" fill="white" transform="translate(0.0878906)"></rect></clipPath></defs></svg>